<svg viewBox="114.1 390.8 142.2 123.3" class="iberia" aria-hidden="true">
  <path class="iberia-coast" d="m 147.60654,395.83938 c -0.66594,0.12336 -1.37641,0.87426 -2.01569,1.15619 -0.61993,0.25634 -1.31282,0.60314 -2.04714,0.96875 -0.22215,1.16519 -0.0807,1.43119 0.37795,1.59379 0.52418,0.18575 0.30129,0.85488 0.18897,1.375 -0.11233,0.52009 -0.65898,-1.6062 -1.07084,-0.9375 -0.41186,0.66871 -0.55965,-0.1899 -1.79517,0.21875 -1.21355,0.40136 -2.20829,0.44067 -2.74014,-0.15625 -0.33023,0.077 -0.63703,0.13275 -0.94485,0.15625 -0.75769,0.094 -1.35182,-0.188 -2.39363,0 -0.0947,0 -0.47268,0.18701 -0.37795,0.375 0.28416,0.18799 1.13403,-0.0945 1.03929,0.1875 -0.0947,0.46996 -2.74144,-0.47677 -2.17311,2.62499 0.15015,0.89402 0.42309,1.37769 0.75588,1.65619 -0.14921,0.90766 -0.23474,1.21779 0.28346,0.87498 0.6354,-0.42028 0.57007,0.2727 1.41723,0.0625 0.84721,-0.21015 -0.10038,0.56113 -0.6299,0.71875 -0.52951,0.15762 -0.50983,0.96466 -1.03929,1.43749 -0.52951,0.47285 0.14748,0.5797 0.0944,1 -0.0529,0.42031 0.52578,-0.57833 1.63775,-1.1562 0.77574,-0.40317 0.24212,-0.2289 0.69289,0.0625 -0.14809,0.093 -0.29597,0.17693 -0.37794,0.3125 -0.28414,0.37598 -0.094,0.87402 -0.28345,1.25 -0.0947,0.094 -1.0396,-1.1274 -0.94486,-0.1875 0.0947,0.37598 0.37704,0.84324 0.75588,1.03119 0.47356,0.18799 1.82693,-0.56394 1.73229,0 -0.18942,0.65795 -1.44747,0.37403 -2.01569,0.75 -0.37885,0.37598 -0.19011,1.21899 0.28346,1.12499 0.56825,-0.094 1.16396,-0.656 1.73228,-0.74999 0.28414,-0.094 -0.094,0.37476 -0.28346,0.46875 -0.66298,0.56394 -2.10972,0.27907 -2.29909,1.12499 -0.0947,0.18801 0.28396,0.56227 0.0944,0.65626 -0.18941,0.188 -0.75613,-0.46948 -0.6614,-0.1875 0,0.75194 1.0398,1.40429 0.85037,2.15619 1.42066,-0.75195 3.80684,-1.3135 5.51171,-0.9375 0.18941,0.094 -0.2837,0.46826 -0.18897,0.65624 0.18943,0.188 0.56647,-4.9e-4 0.75588,0.18751 1.13655,1.12789 -3.31238,1.49589 -1.03929,3.09379 0.85242,0.56395 1.98304,-0.74976 2.45663,-0.84375 0.0947,-0.094 0,0.281 0,0.375 0,0.18798 -0.18927,0.37476 -0.0944,0.46875 0.56827,0.094 1.22695,-0.094 1.79518,0 0.37885,0 0.85013,0.0928 0.94485,0.46874 0.18942,0.18796 -0.56734,0.37476 -0.37794,0.46875 0.28415,0.18799 0.75499,-0.2818 1.13383,-0.0937 0.37886,0.094 1.79205,1.40919 3.11807,0.28125 0.18942,-0.18799 -0.18942,-0.65574 0,-0.84375 0.85241,-0.56395 0.78648,0.3745 1.16527,0.5625 2.17836,0.84594 2.54683,-0.002 4.34634,0.93749 0.37886,0.188 -0.47356,3.78098 0,3.87498 0.663,0.094 3.11938,-0.0986 2.55106,1.78119 -0.7577,2.06779 -3.39806,2.15429 -4.81872,2.90629 l -1.98424,2.06249 c -0.37885,0.18799 -1.07013,-0.37579 -1.35435,-0.0937 l 0.85036,2.28119 c 0.0948,0.75193 -0.47217,1.49809 -0.5669,2.24999 -0.0947,0.65796 -0.0938,1.31079 -0.37794,1.96879 -0.0947,0.28199 -0.47219,0.28076 -0.56691,0.46875 -0.56827,1.12789 0.47267,0.27881 0.37794,1.21879 -0.0947,1.3159 -3.02425,0.46413 -2.74013,2.24999 0.28412,1.97379 1.70386,1.0244 0.37794,3.65618 -1.13655,2.16179 -1.60107,2.0015 -3.77942,1.4375 -0.8524,-0.18799 -1.41522,-0.28051 -2.26766,-0.5625 -0.18943,0 -0.56715,-0.2818 -0.47243,-0.0937 0,0.094 1.51157,2.99979 1.60631,3.09379 0,0.18799 -0.6628,2.15309 -0.0944,3.37498 0.37886,0.75194 2.17312,1.96819 2.17312,2.15619 -0.18941,2.44379 -2.07525,2.27829 -3.49601,3.40619 -1.61014,1.31589 0.001,0.46583 -0.56692,1.59379 -0.28414,0.65796 -0.94416,1.12329 -1.22836,1.78119 0,0.18798 0.56667,-4.9e-4 0.6614,0.18749 0.37884,0.46998 0.37749,1.1235 0.56691,1.68749 0.18943,0.56394 0.0933,1.3115 0.56692,1.68749 0.47355,0.28199 1.41662,-0.46995 1.70074,0 1.13654,1.8799 -3.49552,1.9685 -3.68489,2.0625 -0.56827,0.28198 -0.47107,1.31129 -1.03929,1.78129 -3.12553,2.72588 -2.20426,3.39608 -2.39364,7.34376 1.23129,0 2.95964,0.28076 3.33849,0.46874 0.47356,0.28199 0.75454,1.0317 1.3228,0.93751 0.18944,0 0.28323,-0.0933 0.37795,-0.28125 v 0.1875 l 2.55106,2.43749 c 0.37884,0.46995 0.7552,0.93603 1.03929,1.49999 0.24082,0.47799 0.0628,1.36619 0.40944,1.68749 -0.4869,0.33285 -0.84468,0.64192 -0.78738,0.8125 0.0437,0.13002 0.10038,0.2313 0.18897,0.34375 0.0423,1.57219 0.75111,1.15419 1.22837,1.40619 0.0122,0.006 0.0196,0.0238 0.0314,0.0312 0.40942,0.76539 0.0679,0.83641 -0.59841,0.53125 0.0435,0.14289 0.10509,0.27106 0.15748,0.40626 -0.0109,-0.005 -0.063,-0.0374 -0.063,-0.0312 0.18941,0.93993 1.13221,4.02958 1.79517,4.68747 0.28414,0.28199 0.84969,-7.2e-4 1.13383,0.28126 0.47356,0.37597 0.56601,1.03 0.94486,1.5 0.28414,0.28198 0.84947,0.37427 1.22836,0.65624 0.28415,0.18799 0.28278,0.87543 0.56691,0.78125 0.75769,-0.28198 1.2585,-1.06129 1.82672,-1.53119 0.37886,-0.28198 0.94462,0.28169 1.03929,0.1875 0.8524,-1.2219 0.65732,-1.96659 2.36219,-2.81249 2.08362,-1.0337 3.96477,0.65776 5.48016,0.0937 1.04181,-0.46996 1.60349,-1.87429 2.74014,-2.15619 1.04181,-0.18799 6.64251,0.65504 7.87379,1.12499 0.66299,0.18799 1.03778,0.7495 1.70074,0.9375 1.23129,0.18799 2.45391,-0.46948 3.59045,-0.1875 0.85241,0.094 2.864,1.68819 3.71644,1.40619 0.66299,-0.18799 0.9435,-0.937 1.51176,-1.12499 2.84132,-0.75194 3.20979,2.34539 4.34634,1.68749 3.03079,-1.50389 3.04803,-5.15148 5.98408,-7.03127 1.70478,-1.12789 4.0581,-2.06399 6.04708,-1.49999 0.47355,0.0939 0.94372,0.5625 1.41723,0.5625 0.7577,0.094 1.79457,0.1893 2.07869,-0.46875 0.1894,-0.65795 -1.3228,-0.93556 -1.3228,-1.68749 0.0947,-3.00779 1.79336,-0.87015 2.55106,-2.74999 0.28417,-0.56397 -0.2843,-1.40479 0.0944,-1.96879 0.28414,-0.46996 1.06993,-0.0928 1.44878,-0.46875 0.28412,-0.37597 -9.1e-4,-1.12379 0.37794,-1.59379 0.18942,-0.18799 0.66071,0.18799 0.94486,0 0.37882,-0.28198 0.18828,-0.93678 0.47243,-1.2188 0.66299,-0.46995 1.50995,-0.562 2.26765,-0.74999 0.18941,0 0.47198,0.28178 0.6614,0.0937 0.18942,-0.094 0.18853,-0.56201 0.37794,-0.75 0.66299,-0.46996 2.26604,-0.65469 2.929,-1.21879 0.85241,-0.56385 -2.64489,-2.56149 -2.929,-2.93749 -0.85241,-1.2219 -1.89152,-5.71508 -1.13383,-7.12497 1.70488,-3.47768 5.19041,-6.11797 7.84226,-8.84376 0.94712,-0.93993 1.35162,-2.52909 2.48817,-3.37498 0.18943,-0.094 3.11807,-0.74927 3.11807,-1.0312 0.0947,-0.65796 -1.32209,-0.5608 -1.60631,-1.21879 -0.18942,-0.84594 1.13222,-1.3423 1.79518,-1.90619 2.55721,-2.06789 8.33851,-1.4038 11.55898,-2.34379 0.85242,-0.18799 1.69943,-1.5928 2.26766,-1.96879 0.7577,-0.65795 2.35967,-1.0303 3.40148,-1.4062 1.13655,-0.46997 5.22709,-2.05979 5.70058,-3.09378 0.94711,-1.5979 -0.56781,-3.78029 -0.18898,-4.15618 0.47357,-0.46996 1.70024,-0.27931 1.88972,-1.0313 0.18942,-0.56395 -0.18785,-1.03 -0.66141,-1.49999 h -0.37795 c -1.51539,-0.37598 -3.24062,-1.2212 -4.66128,-0.28125 -0.28415,0.18798 0.0954,0.93725 -0.28346,1.03119 -0.94712,0.28197 -2.54884,-1.59379 -3.49602,-1.59379 -0.85241,0 -1.50995,0.46852 -2.26765,0.56251 -0.56828,0.094 -0.66094,-0.93701 -0.85037,-1.125 -0.47356,-0.37598 -1.22675,-0.56177 -1.88971,-0.84374 -2.93606,0.84591 -2.74124,-0.46634 -2.26765,-1.4062 v -0.0937 c -0.47356,-0.28198 -0.21934,-1.12399 -0.6929,-1.49999 -0.28414,-0.28198 -0.84923,-0.28102 -1.32279,-0.375 -0.18942,0 -0.47219,0.094 -0.56692,0 -1.04181,-0.93992 -1.98031,-2.06179 -3.59045,-2.34379 -1.13655,-0.188 -0.6614,1.96879 -0.6614,1.96879 -1.04181,-0.094 -1.88749,-0.84398 -2.83457,-0.74999 -0.28413,0 -0.28277,0.56249 -0.56691,0.56249 -0.56827,-0.094 -0.84901,-0.74975 -1.41723,-0.84375 -0.56827,-0.094 -0.94351,0.469 -1.51177,0.375 -1.23129,0 -0.78579,-1.2485 -1.44878,-1.81249 -1.32592,-1.1279 -2.54814,0.56493 -3.77942,-0.375 -0.0947,0 -1.03909,-2.15599 -1.13383,-2.24999 -1.23128,-0.93994 -3.30382,-0.46559 -4.62974,-1.6875 -0.18941,-0.18797 0.0947,-0.65574 0,-0.84373 -0.18941,-0.188 -0.75453,0.84422 -1.3228,0.65625 -1.23128,-0.56397 1.51379,-1.6851 0.6614,-2.62499 -0.28414,-0.37597 -0.84924,-0.56226 -1.3228,-0.65626 -0.0947,0 4.6e-4,0.469 -0.18897,0.375 0,0 -1.06952,-0.93604 -1.63775,-1.49999 -1.79951,0.46995 -4.43784,0.56413 -5.66913,-0.0937 -0.47356,-0.28199 -0.75454,-0.93677 -1.3228,-1.2188 -0.18942,-0.14098 -0.47266,-0.0588 -0.75588,0 -0.34806,-0.16914 -0.70232,-0.32407 -1.00785,-0.43751 -0.099,-0.18597 -0.14101,-0.36852 -0.15747,-0.49998 -0.52802,0.0642 -1.16336,0.004 -2.04714,-0.1875 -0.0125,-0.0231 -0.0197,-0.0399 -0.0315,-0.0625 -0.2156,0.0746 -0.41869,0.16999 -0.53541,0.34376 -0.18942,0.18798 0.28414,0.84374 0,0.84374 -0.75771,0 -2.8643,-1.99949 -3.622,-2.18749 0.0947,-0.094 0.18897,-0.28101 0.18897,-0.375 -0.0644,-0.12783 -0.15511,-0.24747 -0.25196,-0.34374 -0.96672,0.14896 -1.36745,-0.20349 -2.04714,0.15624 -0.7943,0.42031 -1.27402,0.47284 -0.85037,0 0.42361,-0.47288 0.0425,-0.58374 -1.22836,-0.53124 -0.0362,-0.11979 -0.0403,-0.20585 -0.063,-0.3125 -0.18943,0.094 -0.18854,0.46851 -0.37794,0.5625 -3.12553,0.93993 -9.28539,-2.0584 -11.65272,-3.65619 -0.28414,-0.188 -0.84992,0.46948 -1.03929,0.1875 -0.18943,-0.094 0.37839,-0.37451 0.18897,-0.5625 -0.56826,-0.56396 -1.69943,0.001 -2.26765,-0.46875 -0.56826,-0.46995 -0.65981,-1.5932 -1.3228,-1.7812 -0.75769,-0.18798 -1.41552,0.75 -2.17312,0.75 -0.56827,0 -0.8805,-0.56201 -1.44877,-0.75 -0.56827,-0.094 -1.79367,0.18778 -2.45663,0.0937 -2.65194,-0.37597 -1.22201,-0.46703 -3.87396,-1.12499 -0.1516,-0.0301 -0.26595,0.0604 -0.37794,0.1875 -1.19188,-0.19214 -1.84899,-0.3 -2.39363,-0.78126 -0.88254,-1.48779 -1.36261,-3.56248 -3.11808,-3.56248 -0.7577,0 -1.22655,1.34399 -1.98424,1.24999 -0.47354,-0.094 0.47339,-1.24929 0.0944,-1.53129 -0.2131,-0.14098 -0.40792,-0.16612 -0.6299,-0.12499 z m 101.09703,63.03071 c -0.33464,0.006 -0.74156,0.0507 -1.22836,0.12501 -0.89861,0.14859 -0.74819,0.23755 -0.59841,0.90625 0.14976,0.6687 0.14844,0.96109 1.19681,0.81249 1.04837,-0.1486 0.84135,0.7299 1.88972,1.25 1.04836,0.52011 1.40957,0.4388 1.2598,-0.75001 -0.14976,-1.1888 -0.61383,-1.16739 -0.91336,-1.68749 -0.22465,-0.39 -0.60234,-0.67367 -1.6063,-0.65626 z m -7.49586,0.65626 c -0.22114,0.006 -0.55853,0.0321 -1.00784,0.125 -1.79719,0.37151 -2.60921,0.382 -3.43303,1.12499 -0.82371,0.74301 -2.10468,1.3508 -3.52746,2.09379 -1.04836,0 -0.21341,1.2493 0.53542,1.8438 0.74884,0.5944 0.81469,0.21939 1.03929,-0.375 0.22466,-0.59441 0.61735,-0.82496 1.29125,-0.15625 0.67395,0.66871 -0.091,1.79239 0.28345,2.31249 0.37442,0.5201 1.49564,-0.0791 1.79528,0.81249 0.29953,0.89161 0.3808,1.0632 1.35434,0.46875 0.97349,-0.59441 1.05824,-0.59659 1.73228,-1.56249 0.67396,-0.96591 1.57829,-1.87019 1.95271,-2.68749 0.37442,-0.8173 -0.7006,-2.09019 -0.85037,-1.71879 -0.14977,0.3715 -0.65655,1.19229 -1.48033,0.375 -0.82372,-0.81732 0.15748,-0.81184 0.15748,-1.4062 0,-0.59439 -0.37376,0.38746 -0.59841,-0.28124 -0.22466,-0.66871 -0.0126,-0.17155 0.6614,-0.46875 0.50545,-0.22291 0.75791,-0.51742 0.0944,-0.5 z m -16.78668,8.43746 c -0.42707,0 -1.03284,0.37937 -2.01569,0.84375 -0.67396,0.74299 -0.70127,0.37849 -0.25197,0.74999 0.44931,0.3715 -0.58651,-0.0944 -0.66139,0.49999 -0.0749,0.59441 0.1414,0.74586 0.44093,0.96876 0.29954,0.2229 1.43336,0.60204 1.13383,0.15624 -0.29953,-0.44579 0.60195,-0.38613 0.97636,-0.90625 0.37443,-0.52009 1.35082,-0.95213 0.97635,-1.84369 -0.1404,-0.33435 -0.34217,-0.46875 -0.59841,-0.46875 z m -1.66919,4.68748 c -0.74884,0.14861 -0.52418,1.73119 0,1.06249 0.52419,-0.66869 0.53476,0.2146 1.13382,0.4375 0.59908,0.22289 1.35566,-0.96524 0.15748,-0.59374 -1.19813,0.3715 -0.0182,-0.75764 -1.29125,-0.90625 z m -70.92716,23.18789 c -0.96305,0.11244 -2.14339,0.84457 -2.26765,0.90625 l 0.66139,2.71879 h 2.11022 c 0,-0.28198 -0.0944,-0.46802 -0.0944,-0.75 -0.0947,-0.56396 -0.28394,-1.12349 -0.0944,-1.68749 0.0947,-0.28198 0.94509,-0.37427 0.85037,-0.65625 -0.14206,-0.32898 -0.4244,-0.49747 -0.75588,-0.53125 -0.12431,-0.0127 -0.27186,-0.0161 -0.40944,0 z m 23.58964,10.49996 c -0.27968,-0.1375 -0.92003,1.36999 -1.41723,1.78119 l 1.41723,0.9375 c 0,-0.84592 0.18925,-1.77929 0.0944,-2.53118 -0.0237,-0.094 -0.0545,-0.16786 -0.0944,-0.1875 z m 0.44095,2.24999 c -0.0355,0.0235 -0.063,0.0935 -0.063,0.1875 v 0.0937 l 0.18899,-0.28123 c -0.0474,0 -0.0905,-0.0235 -0.12598,0 z"/>
  <path class="pt-soon" d="m 139.57401,414.74929 c -1.4518,0.0353 -3.06032,0.49853 -4.12592,1.0625 -0.18942,0.93992 -2.55247,1.40409 -1.98425,2.24999 0.37884,0.46995 1.51137,0.27978 1.70074,0.84374 0.18942,0.46995 -1.03868,-0.0947 -1.32279,0.28125 -0.56827,0.84591 -0.47289,4.90358 -0.28346,5.93748 0,0.28197 0.47243,0.37404 0.47243,0.74999 -0.0947,1.5979 -0.7543,2.52779 -1.41724,3.84379 -0.28415,0.56396 -1.51338,1.78149 -0.85037,1.68749 0.66298,-0.18799 0.6598,-1.5933 1.3228,-1.78119 0.47357,-0.094 0.75633,0.84278 0.56692,1.21879 -0.47357,0.65796 -1.79407,0.37306 -2.26766,1.125 -0.66298,1.12789 -1.03747,2.46578 -1.79527,3.59378 -0.28413,0.46997 -0.8506,0.74878 -0.75588,1.21879 0,0.46997 0.84993,0.65504 1.03929,1.125 -0.098,-0.0799 -0.52501,-0.52776 -0.75588,-0.375 -0.47357,0.28198 -0.66048,1.0298 -1.03929,1.59379 -0.94713,1.5039 -1.98153,3.37159 -3.11808,4.68748 -0.28415,0.37597 -0.88094,0.46753 -1.2598,0.9375 -0.0947,0.094 0.47286,0.37476 0.28345,0.46874 -0.75771,0.18799 -1.69963,-0.46995 -2.17311,0 -0.47356,0.46996 0.37838,1.2485 0.18897,1.8125 -0.0911,0.30132 -0.45236,0.93484 -0.88187,1.65619 -0.32184,1.93979 -0.0901,2.39369 -1.25981,3.31248 -0.1808,0.14201 -0.40335,0.30018 -0.66139,0.4375 -0.0365,0.16738 -0.0627,0.30322 -0.0314,0.40624 0.0598,0.20775 0.14743,0.39884 0.25196,0.59376 0.21875,0.002 0.41258,0.0247 0.50392,0.0625 0.63541,0.2627 1.04392,0.36367 1.73228,0.46873 0.68836,0.10509 1.38166,0.26815 1.85827,-0.62498 0.47655,-0.89316 1.0279,-1.2355 1.13382,-0.50001 0.1059,0.73554 0.0484,1.11369 -0.69289,1.21879 -0.74132,0.10507 0.14152,0.80253 -0.44093,0.75 -0.58247,-0.0525 -0.69014,0.57792 -1.00785,0 -0.3177,-0.57793 0.10274,-0.59513 -0.85037,-0.4375 -0.95312,0.15761 0.58246,0.28165 0,1.4375 -0.14525,0.28824 -0.38182,0.74605 -0.6614,1.28119 0.70243,0.12581 1.45362,0.0541 2.14167,-0.0312 0.37885,0 0.566,-0.46897 0.94486,-0.375 0.37884,0 0.59728,0.56227 1.07084,0.65626 0.28414,0.094 0.28301,-1.21949 0.47242,-0.9375 0.28416,0.46997 -0.18941,1.1553 0,1.5312 0.28416,0.37597 1.60722,0.56199 1.22837,0.74999 -2.55721,1.2219 -1.0659,-2.00069 -3.14952,-1.71879 -0.56827,0.094 0.69246,0.87377 0.88186,1.3438 0.0947,0.56396 2.5e-4,1.21699 -0.0944,1.87499 -0.18941,1.22189 -1.82672,2.34129 -1.82672,3.28118 0,0.37597 0.56692,0.65528 0.56692,1.0312 0.0947,0.65795 -0.94645,1.87449 -0.28346,2.06249 0.18943,0 0.85082,-0.28174 0.6614,-0.0937 -0.18941,0.28198 -0.75543,0.093 -0.94486,0.375 -0.47355,0.93991 -0.18783,2.09119 -0.66139,3.03118 -0.37885,0.75194 -2.646,3.84108 -2.45663,4.87498 0.0947,0.37597 0.75497,-0.375 1.13383,-0.375 0.56826,-0.0942 1.13242,0.0942 1.70074,0 0.28414,0 0.56623,-0.28149 0.85037,-0.1875 1.5154,0.37597 6.45495,3.56269 7.11791,3.46879 0.28416,0 3.21211,-1.406 3.40148,-1.5 h 1.22837 c 0.18941,-3.94768 -0.73188,-4.61788 2.39363,-7.34376 0.56827,-0.46997 0.47107,-1.4993 1.03929,-1.78129 0.18941,-0.094 4.82154,-0.18262 3.68489,-2.0625 -0.28416,-0.46995 -1.22716,0.28199 -1.70074,0 -0.47357,-0.37596 -0.37749,-1.12359 -0.56692,-1.68749 -0.18942,-0.56397 -0.18807,-1.21749 -0.56691,-1.68749 -0.0947,-0.18798 -0.6614,4.9e-4 -0.6614,-0.18749 0.28415,-0.65794 0.94417,-1.12329 1.22836,-1.78119 0.56828,-1.1279 -1.04322,-0.27785 0.56692,-1.59379 1.42066,-1.1279 3.30654,-0.96242 3.49601,-3.40619 0,-0.188 -1.79427,-1.40429 -2.17311,-2.15619 -0.56827,-1.22189 0.0944,-3.18698 0.0944,-3.37498 -0.0947,-0.094 -1.6063,-2.99979 -1.6063,-3.09379 -0.0947,-0.188 0.28299,0.0937 0.47242,0.0937 0.8524,0.28199 1.41522,0.37451 2.26766,0.5625 2.17836,0.56397 2.64287,0.72432 3.77942,-1.4375 1.32592,-2.63178 -0.0938,-1.68239 -0.37794,-3.65618 -0.28413,-1.78589 2.64539,-0.9341 2.74013,-2.24999 0.0947,-0.93993 -0.94621,-0.0908 -0.37794,-1.21879 0.0947,-0.18799 0.4722,-0.18676 0.56691,-0.46875 0.28415,-0.65795 0.28324,-1.31079 0.37794,-1.96879 0.0947,-0.75194 0.66162,-1.49809 0.56692,-2.24999 l -0.85037,-2.28119 c 0.28414,-0.28199 0.97544,0.28174 1.35434,0.0937 l 1.98425,-2.06249 c 1.42066,-0.75195 4.06101,-0.83841 4.81871,-2.90629 0.56827,-1.87989 -1.8881,-1.68719 -2.55106,-1.78119 -0.47356,-0.094 0.37886,-3.68698 0,-3.87498 -1.79951,-0.93993 -2.16798,-0.0916 -4.34634,-0.93749 -0.37884,-0.188 -0.31291,-1.12649 -1.16527,-0.5625 -0.18942,0.18801 0.18942,0.65576 0,0.84375 -1.32592,1.12789 -2.73912,-0.18727 -3.11807,-0.28125 -0.37885,-0.188 -0.84968,0.28174 -1.13383,0.0937 -0.1894,-0.094 0.56736,-0.28079 0.37794,-0.46875 -0.0947,-0.37598 -0.566,-0.46874 -0.94485,-0.46874 -0.56828,-0.094 -1.22695,0.094 -1.79518,0 -0.0947,-0.094 0.0944,-0.28077 0.0944,-0.46875 0,-0.094 0.0947,-0.469 0,-0.375 -0.47357,0.094 -1.60419,1.40769 -2.45663,0.84375 -2.27309,-1.5979 2.17594,-1.9658 1.03929,-3.09379 -0.18941,-0.18799 -0.56645,4.9e-4 -0.75588,-0.18751 -0.0947,-0.18798 0.37839,-0.56226 0.18897,-0.65624 -0.42621,-0.094 -0.90187,-0.13675 -1.38579,-0.125 z"/>
  <g class="plants"><circle class="plant" cx="186" cy="446" r="2.8"/><circle class="plant" cx="196" cy="416" r="2.8"/></g>
  <g class="map-labels" font-family="JetBrains Mono, monospace">
    <text class="map-label" x="186" y="440">Madrid</text><text class="map-label" x="198" y="411">Bilbao</text>
    <text class="map-label pt-label" x="133" y="462">Lisboa</text>
  </g>
</svg>